<svg width="394" height="414" viewBox="0 0 394 414" fill="none" xmlns="http://www.w3.org/2000/svg">
<path d="M308.884 284.215C318.173 223.19 292.227 101.68 209.552 23.7265C209.552 23.7265 116.527 51.4684 133.31 62.896C133.31 62.896 212.372 179.096 225.104 244.968C225.263 266.438 236.646 300.298 210.513 341.545C193.921 367.733 179.984 373.603 172.018 374.398C169.49 374.202 167.088 373.944 164.831 373.635C164.831 373.635 167.437 374.856 172.018 374.398C213.702 377.626 289.533 363.908 308.884 284.215Z" fill="#ABB8C3"/>
<path d="M177.13 260.651C171.307 219.266 143.503 152.158 129.838 128.305C129.838 128.305 126.635 174.372 128.946 176.437C128.946 176.437 154.511 224.814 162.295 262.502C164.569 276.011 169.601 293.639 162.927 341.858C156.252 390.077 163.785 362.983 163.785 362.983C166.955 354.289 184.69 320.325 177.13 260.651Z" fill="#A87B37"/>
<path d="M213.027 256.053C210.344 211.147 178.796 136.412 161.981 109.454C161.981 109.454 150.626 158.428 153.752 160.881C153.752 160.881 184.671 215.332 190.79 256.485C192.219 271.182 197.142 290.576 180.336 341.491C163.53 392.407 178.575 364.193 178.575 364.193C184.518 355.218 215.659 320.716 213.027 256.053Z" fill="#5D8CB4"/>
<path d="M11.5808 226.47C25.3893 159.695 91.9555 46.1744 192.711 2.22785C192.711 2.22785 264.504 71.427 245.635 75.8297C245.635 75.8297 134.284 160.66 99.3691 222.785C91.4981 244.779 69.2983 274.596 77.4203 328.415C82.577 362.584 92.7166 374.713 99.4332 379.014C101.726 379.919 103.931 380.705 106.026 381.374C106.026 381.374 103.296 381.488 99.4332 379.014C61.6241 364.098 -0.103429 316.831 11.5808 226.47Z" fill="#A87B37"/>
</svg>
